<svg width="32" height="32" viewBox="0 0 32 32" fill="none" xmlns="http://www.w3.org/2000/svg">
<path d="M16.4009 0.26157L20.9164 9.86776C21.0328 10.1169 21.2594 10.2882 21.5209 10.3295L31.6173 11.8702C31.983 11.9258 32.1296 12.3986 31.8651 12.67L24.5599 20.1467C24.371 20.3403 24.2849 20.6196 24.3287 20.8925L26.053 31.4507C26.115 31.8332 25.7326 32.1267 25.4047 31.9458L16.3737 26.9602C16.1394 26.8317 15.8599 26.8317 15.6271 26.9602L6.59611 31.9458C6.26817 32.1267 5.88583 31.8347 5.94779 31.4507L7.67209 20.8925C7.71743 20.6196 7.62978 20.3403 7.44088 20.1467L0.137169 12.6684C-0.127294 12.397 0.0177828 11.9242 0.385008 11.8687L10.4814 10.3279C10.7429 10.2882 10.9696 10.1153 11.0859 9.86617L15.6014 0.259983C15.7647 -0.0875151 16.2377 -0.0875151 16.4009 0.26157Z" fill="#FDCD01"/>
</svg>
